<svg xmlns="http://www.w3.org/2000/svg" version="1.1" xmlns:xlink="http://www.w3.org/1999/xlink" xmlns:svgjs="http://svgjs.dev/svgjs" width="1000" height="1000" viewBox="0 0 1000 1000"><rect width="1000" height="1000" fill="#1f0f53"></rect><g transform="matrix(0.7,0,0,0.7,149.38763442600225,30.680323886639655)"><svg viewBox="0 0 184 247" data-background-color="#1f0f53" preserveAspectRatio="xMidYMid meet" height="1342" width="1000" xmlns="http://www.w3.org/2000/svg" xmlns:xlink="http://www.w3.org/1999/xlink"><g id="tight-bounds" transform="matrix(1,0,0,1,0.16096466516512464,-0.09999999999999432)"><svg viewBox="0 0 183.67807066966975 247.2" height="247.2" width="183.67807066966975"><g><svg></svg></g><g><svg viewBox="0 0 183.67807066966975 247.2" height="247.2" width="183.67807066966975"><g transform="matrix(1,0,0,1,0,47.215199999999996)"><svg viewBox="0 0 183.67807066966975 152.7696" height="152.7696" width="183.67807066966975"><g><svg viewBox="0 0 244.43135999999998 203.29961523720493" height="152.7696" width="183.67807066966975"><g transform="matrix(1,0,0,1,0,142.25211911798317)"><svg viewBox="0 0 244.43135999999998 61.04749611922175" height="61.04749611922175" width="244.43135999999998"><g id="textblocktransform"><svg viewBox="0 0 244.43135999999998 61.04749611922175" height="61.04749611922175" width="244.43135999999998" id="textblock"><g><svg viewBox="0 0 244.43135999999998 41.080900840336135" height="41.080900840336135" width="244.43135999999998"><g transform="matrix(1,0,0,1,0,0)"><svg width="244.43135999999998" viewBox="0.75 -37.5 297.4800109863281 50" height="41.080900840336135" data-palette-color="#ffdb99"><path d="M0.75-34.95L10.8-35Q10.8-34.95 10.85-34.25L10.85-34.25 6.95-33.9 15.25-1.3 24.55-35 25.3-35 25.15-34.6 25.35-35 34.15-1.2 42.95-33.25Q42.95-33.75 42.5-33.8L42.5-33.8 37.8-34.2 37.75-34.95 47.55-35Q47.55-34.95 47.6-34.25L47.6-34.25 44.35-33.95 34.45 0 31.4 0 23.85-29.85 15.6 0 12.5 0 3.9-33.55Q3.75-33.9 3.4-33.95L3.4-33.95 0.8-34.2 0.75-34.95ZM48.1-11.5L48.1-11.5Q48.1-0.7 56.5-0.7L56.5-0.7Q58.7-0.7 61.2-1.18 63.7-1.65 64.4-2.05L64.4-2.05 64.75-1.55Q63.6-0.8 60.97-0.3 58.35 0.2 56.17 0.2 54 0.2 52.27-0.25 50.55-0.7 48.75-1.85 46.95-3 45.9-5.45 44.85-7.9 44.85-11.45L44.85-11.45Q44.85-18.05 48.25-21.55L48.25-21.55Q51.8-25.2 56.5-25.2 61.2-25.2 63.67-22.6 66.15-20 66.15-15.3L66.15-15.3Q66.15-14.3 66-13.15L66-13.15 48.15-13.15Q48.1-12.6 48.1-11.5ZM63.2-15.65L63.2-15.65Q63.2-19.4 61.55-21.78 59.9-24.15 57.05-24.15L57.05-24.15Q53.35-24.15 50.8-20.9L50.8-20.9Q48.75-18.35 48.25-14.1L48.25-14.1 63.15-14.1Q63.2-14.65 63.2-15.65ZM79.7 0L69.65 0.05 69.7-0.65 72.3-1Q72.75-1.05 72.75-1.7L72.75-1.7 72.75-23.35Q72.65-23.75 72.45-23.75L72.45-23.75 69.4-23.85 69.45-24.55Q72.6-25 73.7-25L73.7-25Q75.7-25 75.95-23.25L75.95-23.25 76-23.25 76-22.2Q80.1-25 83.85-25.15L83.85-25.15Q87.5-25.15 89.4-23.7L89.4-23.7Q90.25-23.05 90.92-21.68 91.6-20.3 91.6-18.4L91.6-18.4 91.6-1 95.35-0.75Q95.35-0.7 95.3 0L95.3 0 85.3 0.05Q85.3-0.4 85.35-0.65L85.35-0.65 87.95-1Q88.35-1.05 88.35-1.7L88.35-1.7 88.35-17.15Q88.35-19.15 87.82-20.55 87.3-21.95 86.65-22.6 86-23.25 85.05-23.6L85.05-23.6Q83.95-24 82.75-24L82.75-24Q79.75-23.95 76-21.65L76-21.65 76-1 79.75-0.75Q79.75-0.7 79.7 0L79.7 0ZM119.54-35.45L119.54-35.45 119.54-2.6Q119.54-1.05 120.34-1.05L120.34-1.05 123.34-0.9 123.29-0.15Q120.89 0.25 118.29 0.25L118.29 0.25Q117.74 0.2 117.12-0.3 116.49-0.8 116.39-1.6L116.39-1.6Q113.54 0.2 109.79 0.2L109.79 0.2Q106.14 0.2 103.04-1.85L103.04-1.85Q101.29-3 100.22-5.48 99.14-7.95 99.14-11.5L99.14-11.5Q99.14-18.05 102.49-21.5L102.49-21.5Q106.04-25.2 110.59-25.2L110.59-25.2Q113.39-25.2 116.29-23.75L116.29-23.75 116.29-35.7Q116.29-36.25 115.99-36.25L115.99-36.25 112.94-36.35 112.99-37.05Q116.14-37.5 117.32-37.5 118.49-37.5 119.02-36.85 119.54-36.2 119.54-35.45ZM110.44-0.7L110.44-0.7Q113.49-0.7 116.29-2.05L116.29-2.05 116.29-22.95Q114.09-24.3 111.94-24.3L111.94-24.3Q107.64-24.3 105.02-21 102.39-17.7 102.39-11.55L102.39-11.55Q102.39-0.7 110.44-0.7ZM142.39 12.45L131.84 12.5 131.74 11.8 136.39 11.2Q136.74 11.15 136.84 10.5L136.84 10.5 138.49 0 136.84 0 128.49-23.25 128.44-23.3Q128.19-23.9 127.64-24L127.64-24 125.39-24.2Q125.34-24.5 125.34-24.95L125.34-24.95 135.84-25Q135.84-24.95 135.89-24.25L135.89-24.25 131.99-23.95 139.39-1.3 148.69-23.3Q148.84-23.6 148.52-23.8 148.19-24 147.84-24.05L147.84-24.05 145.64-24.2Q145.59-24.5 145.59-24.95L145.59-24.95 154.74-25Q154.74-24.95 154.79-24.25L154.79-24.25 150.34-23.8 139.84 0 137.94 11.45 142.29 11.7Q142.39 12.4 142.39 12.45L142.39 12.45ZM188.59-34.3L188.59-34.3Q182.94-34.3 179.63-29.6 176.34-24.9 176.34-16L176.34-16Q176.34-5.2 181.28-2.05L181.28-2.05Q182.78-1.1 184.06-0.83 185.34-0.55 186.88-0.55L186.88-0.55Q191.84-0.55 197.24-1.75L197.24-1.75 197.38-1.05Q196.53-0.75 192.86-0.28 189.19 0.2 186.88 0.2 184.59 0.2 182.88-0.13 181.19-0.45 179.28-1.5 177.38-2.55 176.06-4.28 174.74-6 173.84-9 172.94-12 172.94-16L172.94-16Q172.94-24.85 176.99-29.8L176.99-29.8Q181.24-35 188.59-35L188.59-35Q190.84-35 193.46-34.58 196.09-34.15 197.19-33.75L197.19-33.75 197.78-26.55 196.84-26.2 196.19-31.55Q192.13-34.3 188.59-34.3ZM210.61 0.2Q205.38 0.2 202.16-2.8 198.93-5.8 198.93-11.98 198.93-18.15 202.36-21.68 205.78-25.2 210.98-25.2 216.18-25.2 219.43-22.2 222.68-19.2 222.68-13.03 222.68-6.85 219.26-3.33 215.83 0.2 210.61 0.2ZM210.93-24.3Q207.18-24.3 204.68-21.05 202.18-17.8 202.18-12.23 202.18-6.65 204.56-3.68 206.93-0.7 210.68-0.7 214.43-0.7 216.93-3.95 219.43-7.2 219.43-12.75 219.43-18.3 217.06-21.3 214.68-24.3 210.93-24.3ZM247.58-35.45L247.58-35.45 247.58-2.6Q247.58-1.05 248.38-1.05L248.38-1.05 251.38-0.9 251.33-0.15Q248.93 0.25 246.33 0.25L246.33 0.25Q245.78 0.2 245.16-0.3 244.53-0.8 244.43-1.6L244.43-1.6Q241.58 0.2 237.83 0.2L237.83 0.2Q234.18 0.2 231.08-1.85L231.08-1.85Q229.33-3 228.25-5.48 227.18-7.95 227.18-11.5L227.18-11.5Q227.18-18.05 230.53-21.5L230.53-21.5Q234.08-25.2 238.63-25.2L238.63-25.2Q241.43-25.2 244.33-23.75L244.33-23.75 244.33-35.7Q244.33-36.25 244.03-36.25L244.03-36.25 240.98-36.35 241.03-37.05Q244.18-37.5 245.36-37.5 246.53-37.5 247.06-36.85 247.58-36.2 247.58-35.45ZM238.48-0.7L238.48-0.7Q241.53-0.7 244.33-2.05L244.33-2.05 244.33-22.95Q242.13-24.3 239.98-24.3L239.98-24.3Q235.68-24.3 233.06-21 230.43-17.7 230.43-11.55L230.43-11.55Q230.43-0.7 238.48-0.7ZM259.38-11.5L259.38-11.5Q259.38-0.7 267.78-0.7L267.78-0.7Q269.98-0.7 272.48-1.18 274.98-1.65 275.68-2.05L275.68-2.05 276.03-1.55Q274.88-0.8 272.25-0.3 269.63 0.2 267.45 0.2 265.28 0.2 263.55-0.25 261.83-0.7 260.03-1.85 258.23-3 257.18-5.45 256.13-7.9 256.13-11.45L256.13-11.45Q256.13-18.05 259.53-21.55L259.53-21.55Q263.08-25.2 267.78-25.2 272.48-25.2 274.95-22.6 277.43-20 277.43-15.3L277.43-15.3Q277.43-14.3 277.28-13.15L277.28-13.15 259.43-13.15Q259.38-12.6 259.38-11.5ZM274.48-15.65L274.48-15.65Q274.48-19.4 272.83-21.78 271.18-24.15 268.33-24.15L268.33-24.15Q264.63-24.15 262.08-20.9L262.08-20.9Q260.03-18.35 259.53-14.1L259.53-14.1 274.43-14.1Q274.48-14.65 274.48-15.65ZM288.28-0.6L288.28-0.6Q288.57-0.6 288.88-0.65L288.88-0.65Q291.48-0.7 293.23-2.27 294.98-3.85 294.98-6.9L294.98-6.9Q294.98-9.9 290.28-11.25L290.28-11.25Q288.32-11.8 286.38-12.45 284.43-13.1 283.05-14.5 281.68-15.9 281.68-18.15L281.68-18.15Q281.68-21.35 284.13-23.28 286.57-25.2 290.32-25.2L290.32-25.2Q293.13-25.2 295.98-24.2L295.98-24.2 296.88-23.85 296.88-18.1 295.93-17.75 295.73-22Q292.82-24.3 290.88-24.3L290.88-24.3Q288.13-24.3 286.53-22.68 284.93-21.05 284.93-18.35L284.93-18.35Q284.93-16.8 286.3-15.85 287.68-14.9 289.63-14.35 291.57-13.8 293.53-13.13 295.48-12.45 296.85-10.93 298.23-9.4 298.23-6.95L298.23-6.95Q298.23-3.65 295.75-1.73 293.28 0.2 288.73 0.2 284.18 0.2 281.18-1.95L281.18-1.95 281.18-7.7 282.07-8.05 282.32-3.8Q283.03-2.5 284.85-1.55 286.68-0.6 288.28-0.6Z" opacity="1" transform="matrix(1,0,0,1,0,0)" fill="#ffdb99" class="wordmark-text-0" data-fill-palette-color="primary" id="text-0"></path></svg></g></svg></g><g transform="matrix(1,0,0,1,46.68638976,50.77911558711933)"><svg viewBox="0 0 151.05858048 10.268380532102418" height="10.268380532102418" width="151.05858048"><g transform="matrix(1,0,0,1,0,0)"><svg width="151.05858048" viewBox="3 -37.5 712.6699829101562 48.45000076293945" height="10.268380532102418" data-palette-color="#ff5db2"><path d="M3-37.5L20.65-37.5Q24.35-37.5 25.78-35.88 27.2-34.25 27.2-30.95L27.2-30.95 27.2-6.55Q27.2-3.1 25.6-1.55 24 0 20.65 0L20.65 0 3 0 3-3.4 6.15-3.4 6.15-34.1 3-34.1 3-37.5ZM23.1-3.4L23.1-34.1 10.25-34.1 10.25-3.4 23.1-3.4ZM47.35-25L47.35-25Q51.25-25 51.25-21.15L51.25-21.15 51.25-16.7 47.2-16.7 47.2-21.55 39.4-16.6 39.4-3.4 41.85-3.4 41.85 0 32.2 0 32.2-3.4 35.35-3.4 35.35-21.65 32.2-21.65 32.2-25.05 39.4-25.05 39.4-20.65 45.55-24.5Q46.35-25 47.35-25ZM55.75-3.65L55.75-20.1Q55.75-25.05 60.9-25.05L60.9-25.05 69.34-25.05Q71.8-25.05 72.9-24.1 74-23.15 74-20.6L74-20.6 74-15.95 59.75-6.95 59.75-3.4 70.05-3.4 70.05-6.3 74-6.3 74-3.65Q74-2.15 73.07-1.07 72.15 0 70 0L70 0 59.75 0Q57.6 0 56.67-1.07 55.75-2.15 55.75-3.65L55.75-3.65ZM59.75-21.6L59.75-11 70-17.45 70-21.6 59.75-21.6ZM95.34-3.4L98.49-3.4 98.49 0 81.09 0Q78.54 0 77.64-1L77.64-1Q76.84-1.9 76.84-4.4L76.84-4.4 76.84-6.25Q76.84-8.05 77.29-8.7L77.29-8.7Q77.94-9.65 80.24-11.05L80.24-11.05 91.24-17.9 91.24-21.6 81.44-21.6 81.44-18.7 78.24-18.7 78.24-25 90.74-25Q93.29-25 94.32-23.9 95.34-22.8 95.34-20.7L95.34-20.7 95.34-3.4ZM91.24-3.4L91.24-13.9 80.84-7.4 80.84-3.4 91.24-3.4ZM132.24-25.5L132.24-25.5Q136.14-25.5 136.14-21.65L136.14-21.65 136.14-3.4 139.34-3.4 139.34 0 129.69 0 129.69-3.4 132.09-3.4 132.09-22 122.94-16.3 122.94-3.4 125.39-3.4 125.39 0 116.44 0 116.44-3.4 118.84-3.4 118.89-3.6 118.89-22.05 109.69-16.3 109.69-3.4 112.14-3.4 112.14 0 102.49 0 102.49-3.4 105.64-3.4 105.64-21.65 102.49-21.65 102.49-25 109.69-25 109.69-20.25 117.24-25Q118.04-25.5 119.04-25.5L119.04-25.5Q122.94-25.5 122.94-21.65L122.94-21.65 122.94-20.3 130.44-25Q131.24-25.5 132.24-25.5ZM170.09-34.1L170.09-3.4 173.34-3.4 173.34 0 162.84 0 162.84-3.4 165.99-3.4 165.99-34.1 162.84-34.1 162.84-37.5 173.34-37.5 173.34-34.1 170.09-34.1ZM196.63-25.5L196.63-25.5Q200.53-25.5 200.53-21.65L200.53-21.65 200.53-3.4 203.73-3.4 203.73 0 194.08 0 194.08-3.4 196.48-3.4 196.48-22 186.53-15.75 186.53-3.4 188.98-3.4 188.98 0 179.33 0 179.33-3.4 182.48-3.4 182.48-21.65 179.33-21.65 179.33-25 186.53-25 186.53-19.8 194.83-25Q195.63-25.5 196.63-25.5ZM243.58-3.4L243.58-9.25 246.98-9.25 246.98 0 231.63 0Q227.43 0 226.53-3.3L226.53-3.3Q226.23-4.25 226.23-5.35L226.23-5.35 226.23-32.1Q226.23-35.75 228.78-37L228.78-37Q229.73-37.5 231.13-37.5L231.13-37.5 246.98-37.5 246.98-28.25 243.58-28.25 243.58-34.1 230.33-34.1 230.33-3.4 243.58-3.4ZM265.38 0L256.13 0Q253.58 0 252.53-1.18 251.48-2.35 251.48-4.45L251.48-4.45 251.48-20.55Q251.48-22.55 252.4-23.78 253.33-25 256.13-25L256.13-25 265.38-25Q268.13-25 269.08-23.78 270.03-22.55 270.03-20.55L270.03-20.55 270.03-4.45Q270.03-2.35 268.98-1.18 267.93 0 265.38 0L265.38 0ZM255.53-21.6L255.53-3.4 265.98-3.4 265.98-21.6 255.53-21.6ZM293.22-3.45L296.37-3.45 296.37 0 289.12 0 289.12-5.75 280.47-0.3Q278.92 0.5 277.55 0.5 276.17 0.5 275.35-0.5 274.52-1.5 274.52-2.8L274.52-2.8 274.52-20.3Q274.52-22.6 275.22-23.45L275.22-23.45Q276.42-25 279.02-25L279.02-25 289.12-25 289.12-34.1 285.82-34.1 285.82-37.5 293.22-37.5 293.22-3.45ZM289.12-9.75L289.12-21.6 278.52-21.6 278.52-3.15 289.12-9.75ZM300.87-3.65L300.87-20.1Q300.87-25.05 306.02-25.05L306.02-25.05 314.47-25.05Q316.92-25.05 318.02-24.1 319.12-23.15 319.12-20.6L319.12-20.6 319.12-15.95 304.87-6.95 304.87-3.4 315.17-3.4 315.17-6.3 319.12-6.3 319.12-3.65Q319.12-2.15 318.2-1.07 317.27 0 315.12 0L315.12 0 304.87 0Q302.72 0 301.8-1.07 300.87-2.15 300.87-3.65L300.87-3.65ZM304.87-21.6L304.87-11 315.12-17.45 315.12-21.6 304.87-21.6ZM330.17-4.9L326.27 7.5 322.62 7.5 326.47-4.9 330.17-4.9ZM371.01-3.4L371.01-9.25 374.41-9.25 374.41 0 359.06 0Q354.86 0 353.96-3.3L353.96-3.3Q353.66-4.25 353.66-5.35L353.66-5.35 353.66-32.1Q353.66-35.75 356.21-37L356.21-37Q357.16-37.5 358.56-37.5L358.56-37.5 374.41-37.5 374.41-28.25 371.01-28.25 371.01-34.1 357.76-34.1 357.76-3.4 371.01-3.4ZM394.06-25L394.06-25Q397.96-25 397.96-21.15L397.96-21.15 397.96-16.7 393.91-16.7 393.91-21.55 386.11-16.6 386.11-3.4 388.56-3.4 388.56 0 378.91 0 378.91-3.4 382.06-3.4 382.06-21.65 378.91-21.65 378.91-25.05 386.11-25.05 386.11-20.65 392.26-24.5Q393.06-25 394.06-25ZM402.46-3.65L402.46-20.1Q402.46-25.05 407.61-25.05L407.61-25.05 416.06-25.05Q418.51-25.05 419.61-24.1 420.71-23.15 420.71-20.6L420.71-20.6 420.71-15.95 406.46-6.95 406.46-3.4 416.76-3.4 416.76-6.3 420.71-6.3 420.71-3.65Q420.71-2.15 419.78-1.07 418.86 0 416.71 0L416.71 0 406.46 0Q404.31 0 403.38-1.07 402.46-2.15 402.46-3.65L402.46-3.65ZM406.46-21.6L406.46-11 416.71-17.45 416.71-21.6 406.46-21.6ZM442.06-3.4L445.21-3.4 445.21 0 427.81 0Q425.26 0 424.36-1L424.36-1Q423.56-1.9 423.56-4.4L423.56-4.4 423.56-6.25Q423.56-8.05 424.01-8.7L424.01-8.7Q424.66-9.65 426.96-11.05L426.96-11.05 437.96-17.9 437.96-21.6 428.16-21.6 428.16-18.7 424.96-18.7 424.96-25 437.46-25Q440.01-25 441.03-23.9 442.06-22.8 442.06-20.7L442.06-20.7 442.06-3.4ZM437.96-3.4L437.96-13.9 427.56-7.4 427.56-3.4 437.96-3.4ZM452.9-34.1L456.8-34.1 456.8-25 460.85-25 460.85-21.4 456.8-21.4 456.8-3.4 461.55-3.4 461.55 0 457.35 0Q455.1 0 454-1.18 452.9-2.35 452.9-5.2L452.9-5.2 452.9-21.4 449.2-21.4 449.2-25 452.9-25 452.9-34.1ZM465.55-3.65L465.55-20.1Q465.55-25.05 470.7-25.05L470.7-25.05 479.15-25.05Q481.6-25.05 482.7-24.1 483.8-23.15 483.8-20.6L483.8-20.6 483.8-15.95 469.55-6.95 469.55-3.4 479.85-3.4 479.85-6.3 483.8-6.3 483.8-3.65Q483.8-2.15 482.88-1.07 481.95 0 479.8 0L479.8 0 469.55 0Q467.4 0 466.48-1.07 465.55-2.15 465.55-3.65L465.55-3.65ZM469.55-21.6L469.55-11 479.8-17.45 479.8-21.6 469.55-21.6ZM515.05-34.1L515.05-3.4 518.3-3.4 518.3 0 507.8 0 507.8-3.4 510.95-3.4 510.95-34.1 507.8-34.1 507.8-37.5 518.3-37.5 518.3-34.1 515.05-34.1ZM541.59-25.5L541.59-25.5Q545.49-25.5 545.49-21.65L545.49-21.65 545.49-3.4 548.69-3.4 548.69 0 539.04 0 539.04-3.4 541.44-3.4 541.44-22 531.49-15.75 531.49-3.4 533.94-3.4 533.94 0 524.29 0 524.29-3.4 527.44-3.4 527.44-21.65 524.29-21.65 524.29-25 531.49-25 531.49-19.8 539.79-25Q540.59-25.5 541.59-25.5ZM596.94-3.4L599.74-3.4 599.74 0 589.84 0 589.84-3.4 592.54-3.4 583.99-17.15 578.69-13.9 578.69-3.4 581.94-3.4 581.94 0 571.44 0 571.44-3.4 574.59-3.4 574.59-34.1 571.44-34.1 571.44-37.5 589.29-37.5Q592.59-37.5 593.74-36.23 594.89-34.95 594.89-31.25L594.89-31.25 594.89-28.15Q594.89-26.25 594.54-25.15 594.19-24.05 593.29-23.18 592.39-22.3 590.89-21.4 589.39-20.5 587.09-19.1L587.09-19.1 596.94-3.4ZM578.69-34.1L578.69-17.9 591.24-25.65 591.24-34.1 578.69-34.1ZM601.33-3.65L601.33-20.1Q601.33-25.05 606.48-25.05L606.48-25.05 614.93-25.05Q617.38-25.05 618.48-24.1 619.58-23.15 619.58-20.6L619.58-20.6 619.58-15.95 605.33-6.95 605.33-3.4 615.63-3.4 615.63-6.3 619.58-6.3 619.58-3.65Q619.58-2.15 618.66-1.07 617.73 0 615.58 0L615.58 0 605.33 0Q603.18 0 602.26-1.07 601.33-2.15 601.33-3.65L601.33-3.65ZM605.33-21.6L605.33-11 615.58-17.45 615.58-21.6 605.33-21.6ZM640.93-3.4L644.08-3.4 644.08 0 626.68 0Q624.13 0 623.23-1L623.23-1Q622.43-1.9 622.43-4.4L622.43-4.4 622.43-6.25Q622.43-8.05 622.88-8.7L622.88-8.7Q623.53-9.65 625.83-11.05L625.83-11.05 636.83-17.9 636.83-21.6 627.03-21.6 627.03-18.7 623.83-18.7 623.83-25 636.33-25Q638.88-25 639.91-23.9 640.93-22.8 640.93-20.7L640.93-20.7 640.93-3.4ZM636.83-3.4L636.83-13.9 626.43-7.4 626.43-3.4 636.83-3.4ZM655.83-37.5L655.83-3.4 659.08-3.4 659.08 0 648.58 0 648.58-3.4 651.73-3.4 651.73-34.1 648.58-34.1 648.58-37.5 655.83-37.5ZM671.33-25L671.33-3.4 674.58-3.4 674.58 0 664.08 0 664.08-3.4 667.23-3.4 667.23-21.6 664.08-21.6 664.08-25 671.33-25ZM669.28-34.2Q670.33-34.2 671.05-33.43 671.78-32.65 671.78-31.58 671.78-30.5 671.05-29.78 670.33-29.05 669.25-29.05 668.18-29.05 667.45-29.78 666.73-30.5 666.73-31.58 666.73-32.65 667.48-33.43 668.23-34.2 669.28-34.2ZM682.27-34.1L686.17-34.1 686.17-25 690.22-25 690.22-21.4 686.17-21.4 686.17-3.4 690.92-3.4 690.92 0 686.72 0Q684.47 0 683.37-1.18 682.27-2.35 682.27-5.2L682.27-5.2 682.27-21.4 678.57-21.4 678.57-25 682.27-25 682.27-34.1ZM709.17-25L715.67-25 715.67 6.65Q715.67 8.75 714.65 9.85 713.62 10.95 711.07 10.95L711.07 10.95 699.52 10.95 699.52 4.15 702.92 4.15 702.92 7.5 711.57 7.5 711.57-5.65 702.77-0.2Q701.62 0.5 700.47 0.5L700.47 0.5Q699.32 0.5 698.47-0.28 697.62-1.05 697.62-2.75L697.62-2.75 697.62-21.6 694.42-21.6 694.42-25 701.67-25 701.67-3.45 711.62-9.7 711.62-21.6 709.17-21.6 709.17-25Z" opacity="1" transform="matrix(1,0,0,1,0,0)" fill="#ff5db2" class="slogan-text-1" data-fill-palette-color="secondary" id="text-1"></path></svg></g></svg></g></svg></g></svg></g><g transform="matrix(1,0,0,1,55.938727814399996,0)"><svg viewBox="0 0 132.5539043712 132.5539043712" height="132.5539043712" width="132.5539043712"><g><svg></svg></g><g id="icon-0"><svg viewBox="0 0 132.5539043712 132.5539043712" height="132.5539043712" width="132.5539043712"><g><rect width="120.52586490047999" height="120.52586490047999" x="6.014019735360002" y="6.014019735360002" fill="#ff5db2" data-fill-palette-color="accent"></rect><rect width="120.52586490047999" height="120.52586490047999" x="2.6645352591003757e-15" y="12.02803947072" fill="#ff5db2" opacity="0.5" data-fill-palette-color="accent"></rect></g><g transform="matrix(1,0,0,1,25.922337575303246,17.1829135296)"><svg viewBox="0 0 80.7092292205935 98.18807731199999" height="98.18807731199999" width="80.7092292205935"><g><svg xmlns="http://www.w3.org/2000/svg" xmlns:xlink="http://www.w3.org/1999/xlink" version="1.1" x="0" y="0" viewBox="28.156002044677734 1.0003328323364258 231.05398559570312 281.09234619140625" enable-background="new 0 0 283.46 283.46" xml:space="preserve" height="98.18807731199999" width="80.7092292205935" class="icon-s-0" data-fill-palette-color="background" id="s-0"><g fill="#1f0f53" data-fill-palette-color="background"><path d="M212.914 218.849c-0.062-0.049-1.817-0.991-4.426-2.383h-0.001c-7.868-4.197-23.472-12.471-23.472-12.471-0.401-0.214-1.609-1.012-2.739-0.39l-20.438 12.863-9.492 5.976c-0.663 0.479-0.59 1.264 0.52 1.861l26.842 14.191c1.83 0.974 2.321 0.606 3.422 0.025l29.516-18.65C213.277 219.482 213.236 219.091 212.914 218.849zM181.962 236.682l-0.375 0.187c-0.336-0.039-0.549-0.13-0.86-0.295l-25.401-13.431 10.603-6.673 17.323-10.904c0.123 0.034 0.707 0.336 0.746 0.355l19.852 10.545 5.49 2.919L181.962 236.682z" fill="#1f0f53" data-fill-palette-color="background"></path><path d="M100.965 225.521c-0.133-0.165-0.287-0.325-0.462-0.477 2.75 2.162 8.358 3.058 12.113 0.693 4.292-2.699 2.988-5.654-0.198-7.294-0.134-0.166-0.288-0.325-0.462-0.478 2.75 2.162 8.358 3.059 12.114 0.695 1.148-0.724 1.896-1.464 2.314-2.189v-0.002c1.145-1.995-0.179-3.902-2.512-5.104-0.134-0.166-0.287-0.326-0.462-0.478 2.75 2.161 8.358 3.058 12.113 0.694 4.291-2.699 2.988-5.654-0.198-7.293-0.134-0.166-0.288-0.326-0.462-0.479 2.751 2.163 8.358 3.06 12.113 0.694 0.662-0.416 1.189-0.838 1.6-1.256v-0.004c2.244-2.318 0.897-4.646-1.798-6.035-0.134-0.164-0.288-0.324-0.462-0.476 2.751 2.162 8.357 3.058 12.113 0.694 4.291-2.7 2.988-5.655-0.197-7.295-0.134-0.165-0.289-0.325-0.463-0.478 2.751 2.162 8.357 3.058 12.113 0.694 4.291-2.7 2.988-5.653-0.197-7.294-0.135-0.166-0.289-0.326-0.463-0.478 2.751 2.162 8.357 3.059 12.113 0.694 4.291-2.7 2.988-5.653-0.197-7.294-0.135-0.167-0.289-0.326-0.463-0.479 2.752 2.162 8.359 3.059 12.113 0.695 4.291-2.699 2.987-5.654-0.197-7.294-0.348-0.434-0.836-0.821-1.452-1.131-2.249-1.13-5.647-1.031-7.71 0.267-0.201 0.127-0.385 0.262-0.547 0.399-0.387 0.168-0.76 0.362-1.115 0.587-3.541 2.229-3.273 4.629-1.281 6.321-0.236-0.183-0.504-0.349-0.799-0.497-2.25-1.13-5.648-1.032-7.711 0.266-0.202 0.127-0.385 0.262-0.547 0.4-0.387 0.167-0.76 0.361-1.116 0.586-3.54 2.229-3.272 4.629-1.28 6.32-0.236-0.182-0.503-0.349-0.799-0.496-2.25-1.129-5.648-1.031-7.712 0.266-0.201 0.127-0.384 0.262-0.547 0.398-0.386 0.168-0.759 0.363-1.115 0.589-3.54 2.228-3.272 4.629-1.28 6.321-0.235-0.183-0.502-0.35-0.799-0.498-2.25-1.129-5.648-1.031-7.712 0.268-0.202 0.126-0.384 0.26-0.547 0.398-0.386 0.166-0.759 0.361-1.116 0.586-3.539 2.229-3.271 4.629-1.281 6.322-0.234-0.183-0.502-0.35-0.797-0.498-2.25-1.13-5.649-1.031-7.711 0.268-0.201 0.126-0.383 0.26-0.547 0.398-0.385 0.168-0.758 0.362-1.116 0.586-3.265 2.056-3.291 4.258-1.712 5.916h0.001c0.132 0.14 0.276 0.274 0.431 0.405-0.187-0.144-0.392-0.276-0.616-0.405h-0.009c-0.057-0.031-0.115-0.062-0.175-0.092-2.144-1.076-5.331-1.037-7.411 0.092h-0.001c-0.102 0.057-0.202 0.114-0.298 0.176-0.202 0.125-0.383 0.26-0.547 0.398-0.385 0.167-0.758 0.363-1.116 0.588-3.54 2.228-3.272 4.627-1.28 6.319-0.236-0.183-0.502-0.349-0.799-0.497-2.25-1.129-5.648-1.031-7.711 0.268-0.202 0.127-0.383 0.261-0.547 0.399-0.385 0.167-0.759 0.362-1.116 0.586-2.684 1.688-3.179 3.478-2.394 4.983l0 0c0.25 0.479 0.631 0.929 1.112 1.338-0.235-0.182-0.502-0.348-0.798-0.497-2.25-1.13-5.648-1.032-7.711 0.267-0.202 0.127-0.384 0.26-0.547 0.399-0.386 0.167-0.759 0.362-1.115 0.586-3.542 2.229-3.273 4.629-1.282 6.321-0.235-0.182-0.502-0.348-0.799-0.497-2.25-1.13-5.649-1.032-7.711 0.268-0.202 0.126-0.384 0.261-0.547 0.399-0.386 0.166-0.759 0.361-1.115 0.586-8.295 5.22 4.316 11.392 11.022 7.171C105.455 230.117 104.152 227.16 100.965 225.521zM184.3 169.429c3.254-2.049 9.603 0.265 6.412 2.271C187.458 173.748 181.11 171.435 184.3 169.429zM181.824 170.927c0.148 0.936 0.858 1.826 2.049 2.424 2.25 1.13 5.648 1.031 7.711-0.268 0.845-0.53 1.349-1.182 1.541-1.856 1.246 1.082 1.017 2.194-1.205 3.592-2.778 1.748-6.687 1.318-9.443-0.065C180.096 173.559 180.335 172.056 181.824 170.927zM172.847 176.505c3.255-2.047 9.604 0.265 6.412 2.271C176.005 180.824 169.656 178.512 172.847 176.505zM170.371 178.003c0.148 0.936 0.858 1.826 2.049 2.425 2.25 1.128 5.648 1.03 7.711-0.267 0.845-0.531 1.349-1.184 1.543-1.858 1.244 1.082 1.015 2.194-1.207 3.593-2.778 1.748-6.687 1.316-9.442-0.064C168.643 180.635 168.882 179.132 170.371 178.003zM161.393 183.582c3.255-2.047 9.604 0.266 6.414 2.271C164.553 187.901 158.203 185.589 161.393 183.582zM158.917 185.082c0.148 0.935 0.858 1.824 2.049 2.422 2.25 1.129 5.648 1.031 7.712-0.267 0.844-0.53 1.348-1.183 1.542-1.858 1.244 1.084 1.015 2.195-1.206 3.594-2.779 1.749-6.688 1.318-9.444-0.065C157.188 187.71 157.43 186.208 158.917 185.082zM149.939 190.658c3.255-2.048 9.604 0.266 6.414 2.271C153.1 194.978 146.75 192.666 149.939 190.658zM147.464 192.156c0.148 0.936 0.858 1.827 2.049 2.424 2.25 1.129 5.648 1.031 7.712-0.267 0.844-0.53 1.349-1.183 1.542-1.856 1.243 1.082 1.016 2.194-1.207 3.592-2.777 1.748-6.686 1.318-9.443-0.065C145.734 194.789 145.977 193.285 147.464 192.156zM138.487 197.734c3.253-2.048 9.603 0.266 6.414 2.271C141.646 202.055 135.297 199.742 138.487 197.734zM136.011 199.233c0.149 0.937 0.859 1.826 2.049 2.423 2.25 1.131 5.648 1.032 7.712-0.267 0.845-0.53 1.349-1.183 1.542-1.856 1.243 1.082 1.016 2.194-1.208 3.592-0.067 0.043-0.137 0.086-0.206 0.127h-0.001c-2.63 1.522-6.186 1.195-8.84 0.002v-0.006c-0.135-0.062-0.266-0.123-0.396-0.188C134.282 201.864 134.523 200.361 136.011 199.233zM127.033 204.812c3.254-2.048 9.604 0.266 6.414 2.271C130.192 209.13 123.844 206.818 127.033 204.812zM124.558 206.311c0.149 0.935 0.859 1.825 2.049 2.423 2.25 1.129 5.648 1.031 7.711-0.268 0.844-0.529 1.348-1.182 1.542-1.856 1.245 1.082 1.014 2.195-1.207 3.593-2.778 1.748-6.685 1.318-9.443-0.065C122.829 208.94 123.07 207.438 124.558 206.311zM115.58 211.888c3.254-2.049 9.603 0.265 6.414 2.271C118.74 216.208 112.39 213.895 115.58 211.888zM113.104 213.387c0.149 0.935 0.858 1.825 2.049 2.423 0.642 0.322 1.376 0.545 2.147 0.663v0.005c0.951 0.15 1.957 0.15 2.909-0.001h0.029c0.972-0.154 1.886-0.467 2.626-0.935 0.844-0.53 1.348-1.182 1.542-1.857 0.994 0.865 1.047 1.749-0.104 2.785H124.3c-0.289 0.259-0.655 0.527-1.1 0.809-2.778 1.748-6.686 1.318-9.444-0.064-0.47-0.236-0.837-0.484-1.113-0.739h-0.001C111.519 215.438 111.91 214.292 113.104 213.387zM104.127 218.964c3.254-2.047 9.603 0.266 6.414 2.271C107.287 223.285 100.937 220.971 104.127 218.964zM101.651 220.462c0.149 0.937 0.859 1.826 2.049 2.425 2.25 1.13 5.648 1.03 7.711-0.267 0.844-0.531 1.348-1.184 1.542-1.857 1.245 1.082 1.014 2.193-1.207 3.592-2.778 1.748-6.686 1.318-9.444-0.064C99.922 223.095 100.163 221.591 101.651 220.462zM92.674 226.041c3.254-2.047 9.603 0.266 6.414 2.271C95.833 230.36 89.483 228.048 92.674 226.041zM100.293 231.432c-2.777 1.748-6.686 1.317-9.443-0.065-2.38-1.195-2.14-2.697-0.652-3.826 0.149 0.936 0.859 1.826 2.049 2.424 2.25 1.129 5.648 1.031 7.711-0.267 0.844-0.532 1.347-1.184 1.542-1.858C102.744 228.921 102.515 230.033 100.293 231.432z" fill="#1f0f53" data-fill-palette-color="background"></path><path d="M75.834 216.479L75.834 216.479c0 0 0-0.001 0-0.002s0-0.001 0-0.002l0 0c0.049-1.468-1.145-2.798-2.929-3.716-0.134-0.166-0.288-0.326-0.462-0.479 2.75 2.162 8.358 3.059 12.114 0.694 4.291-2.699 2.987-5.654-0.198-7.294-0.133-0.166-0.288-0.326-0.462-0.477 2.75 2.162 8.358 3.058 12.113 0.693 1.388-0.873 2.19-1.771 2.533-2.646 0.719-1.826-0.575-3.539-2.731-4.647-0.134-0.166-0.288-0.327-0.462-0.478 2.75 2.162 8.358 3.058 12.113 0.694 4.291-2.7 2.988-5.655-0.198-7.294-0.133-0.167-0.288-0.326-0.462-0.479 2.751 2.162 8.358 3.059 12.114 0.695 4.291-2.701 2.988-5.654-0.199-7.295-0.133-0.166-0.287-0.326-0.462-0.478 2.751 2.163 8.358 3.059 12.114 0.694 4.291-2.699 2.988-5.653-0.198-7.295-0.134-0.166-0.288-0.324-0.463-0.477 2.751 2.161 8.358 3.059 12.114 0.695 4.29-2.701 2.987-5.655-0.198-7.295-0.133-0.166-0.288-0.325-0.463-0.478 2.751 2.162 8.358 3.058 12.114 0.694 4.29-2.7 2.987-5.654-0.198-7.295-0.134-0.165-0.289-0.325-0.463-0.478 2.752 2.162 8.358 3.058 12.114 0.695 4.29-2.7 2.987-5.655-0.198-7.295-0.348-0.433-0.835-0.82-1.451-1.13-2.25-1.129-5.647-1.031-7.711 0.267-0.201 0.127-0.384 0.261-0.547 0.4-0.387 0.165-0.76 0.36-1.115 0.586-3.541 2.228-3.272 4.628-1.281 6.321-0.235-0.183-0.502-0.351-0.799-0.498-2.25-1.129-5.647-1.03-7.711 0.267-0.201 0.127-0.385 0.261-0.547 0.399-0.387 0.168-0.76 0.361-1.115 0.586-3.541 2.229-3.272 4.629-1.28 6.322-0.236-0.182-0.503-0.35-0.799-0.498-2.251-1.129-5.649-1.031-7.712 0.268-0.202 0.126-0.383 0.261-0.547 0.398-0.386 0.168-0.759 0.362-1.115 0.588-3.54 2.228-3.272 4.627-1.281 6.32-0.236-0.182-0.502-0.35-0.799-0.498-2.25-1.129-5.649-1.031-7.711 0.268-0.202 0.127-0.384 0.261-0.547 0.398-0.386 0.168-0.758 0.363-1.116 0.588-3.54 2.227-3.272 4.629-1.281 6.32-0.235-0.182-0.502-0.35-0.799-0.498-2.25-1.129-5.649-1.031-7.711 0.268-0.202 0.127-0.383 0.261-0.547 0.398-0.385 0.168-0.758 0.363-1.115 0.588-3.541 2.227-3.273 4.628-1.281 6.32-0.235-0.182-0.502-0.348-0.799-0.497-2.25-1.13-5.649-1.031-7.711 0.267-0.202 0.127-0.384 0.262-0.547 0.399-0.386 0.168-0.759 0.362-1.116 0.587-3.54 2.229-3.272 4.629-1.281 6.32-0.235-0.182-0.502-0.348-0.799-0.497-2.25-1.13-5.648-1.031-7.711 0.267-0.202 0.127-0.384 0.262-0.547 0.4-0.386 0.167-0.759 0.361-1.115 0.586-2.42 1.521-3.061 3.127-2.587 4.527v0.002c0.219 0.648 0.676 1.256 1.307 1.791-0.236-0.182-0.503-0.348-0.799-0.496-2.25-1.131-5.648-1.031-7.711 0.267-0.201 0.127-0.383 0.261-0.546 0.399-0.386 0.166-0.759 0.361-1.115 0.586-3.54 2.229-3.273 4.629-1.281 6.32-0.236-0.182-0.502-0.349-0.799-0.496-2.25-1.129-5.649-1.031-7.711 0.267-0.202 0.127-0.384 0.261-0.547 0.399-0.386 0.168-0.759 0.361-1.116 0.586-1.895 1.191-2.699 2.435-2.731 3.594l0 0c0 0.001 0 0.001 0 0.001 0 0.001 0 0.001 0 0.001-0.103 3.904 8.583 6.83 13.755 3.576C74.987 218.869 75.792 217.634 75.834 216.479zM156.239 156.667c3.255-2.049 9.604 0.265 6.413 2.271C159.398 160.986 153.05 158.673 156.239 156.667zM153.764 158.166c0.149 0.936 0.858 1.826 2.049 2.424 2.25 1.129 5.647 1.031 7.711-0.268 0.845-0.529 1.349-1.182 1.542-1.857 1.245 1.082 1.016 2.195-1.206 3.594-2.778 1.748-6.687 1.318-9.442-0.066C152.035 160.796 152.275 159.294 153.764 158.166zM144.787 163.744c3.254-2.049 9.603 0.264 6.412 2.271C147.945 168.063 141.596 165.75 144.787 163.744zM142.311 165.242c0.149 0.936 0.858 1.826 2.049 2.424 2.249 1.129 5.647 1.03 7.711-0.268 0.845-0.531 1.349-1.182 1.542-1.857 1.245 1.082 1.016 2.195-1.207 3.594-2.777 1.748-6.685 1.318-9.443-0.065C140.581 167.873 140.822 166.371 142.311 165.242zM133.333 170.82c3.254-2.048 9.603 0.266 6.414 2.271C136.492 175.14 130.143 172.826 133.333 170.82zM130.856 172.318c0.15 0.936 0.859 1.826 2.049 2.424 2.25 1.129 5.649 1.03 7.711-0.267 0.844-0.531 1.348-1.183 1.542-1.856 1.245 1.08 1.015 2.193-1.207 3.592-2.777 1.748-6.685 1.317-9.443-0.065C129.127 174.951 129.369 173.447 130.856 172.318zM121.879 177.896c3.254-2.048 9.604 0.266 6.414 2.271C125.039 182.216 118.69 179.903 121.879 177.896zM119.404 179.396c0.149 0.936 0.859 1.826 2.049 2.423 2.25 1.13 5.649 1.031 7.711-0.266 0.844-0.532 1.347-1.183 1.542-1.859 1.244 1.083 1.015 2.196-1.208 3.595-2.777 1.748-6.685 1.316-9.443-0.065C117.674 182.026 117.916 180.523 119.404 179.396zM110.426 184.973c3.254-2.047 9.604 0.267 6.414 2.272C113.585 189.292 107.237 186.979 110.426 184.973zM107.95 186.473c0.149 0.935 0.859 1.825 2.049 2.422 2.25 1.13 5.649 1.032 7.711-0.267 0.844-0.53 1.348-1.183 1.542-1.857 1.245 1.083 1.015 2.195-1.207 3.593-2.777 1.748-6.685 1.318-9.444-0.065C106.221 189.104 106.462 187.6 107.95 186.473zM98.973 192.05c3.254-2.049 9.604 0.265 6.414 2.271C102.132 196.369 95.783 194.057 98.973 192.05zM96.497 193.548c0.149 0.936 0.859 1.826 2.049 2.424 2.25 1.129 5.648 1.031 7.711-0.268 0.844-0.529 1.348-1.182 1.542-1.857 1.245 1.083 1.016 2.195-1.207 3.594-2.778 1.748-6.685 1.318-9.444-0.066C94.768 196.179 95.009 194.677 96.497 193.548zM87.52 199.126c3.254-2.047 9.603 0.266 6.414 2.271C90.679 203.446 84.33 201.132 87.52 199.126zM85.044 200.625c0.149 0.936 0.858 1.826 2.049 2.424 0.148 0.074 0.301 0.145 0.459 0.207h0.001c1.894 0.768 4.406 0.765 6.3 0.002h0.008c0.336-0.135 0.652-0.293 0.942-0.477 0.844-0.529 1.348-1.182 1.542-1.857 0.845 0.736 1.01 1.484 0.333 2.33h-0.002c-0.319 0.396-0.827 0.815-1.538 1.264-2.778 1.748-6.686 1.318-9.444-0.064-0.744-0.375-1.231-0.777-1.505-1.195h-0.002C83.59 202.351 84.022 201.4 85.044 200.625zM76.066 206.203c3.255-2.049 9.604 0.266 6.414 2.271C79.226 210.522 72.876 208.21 76.066 206.203zM73.59 207.701c0.149 0.936 0.859 1.826 2.049 2.424 2.25 1.129 5.649 1.031 7.711-0.267 0.844-0.53 1.348-1.183 1.542-1.856 1.244 1.082 1.014 2.194-1.207 3.593-2.778 1.747-6.686 1.317-9.443-0.066C71.862 210.332 72.103 208.83 73.59 207.701zM64.613 213.279c3.254-2.048 9.603 0.266 6.414 2.272C67.772 217.599 61.423 215.287 64.613 213.279zM72.233 218.669c-2.778 1.748-6.686 1.318-9.444-0.065-1.301-0.651-1.819-1.397-1.778-2.125 0.034-0.601 0.453-1.188 1.126-1.701 0.097 0.607 0.429 1.195 0.976 1.699h0.004c0.296 0.271 0.653 0.517 1.069 0.726 2.25 1.129 5.648 1.031 7.711-0.268 0.228-0.145 0.431-0.296 0.611-0.457h0.002c0.482-0.43 0.788-0.908 0.93-1.4 0.522 0.454 0.785 0.914 0.749 1.398C74.139 217.145 73.521 217.859 72.233 218.669z" fill="#1f0f53" data-fill-palette-color="background"></path><path d="M48.469 194.861l99.071-63.585c3.004-1.928 5.336-6.408 5.336-10.122V26.256c0-4.062-2.979-6.185-6.514-3.917L47.292 85.925c-3.005 1.928-5.335 6.408-5.335 10.123v94.898C41.957 195.007 44.936 197.13 48.469 194.861zM150.695 26.257v94.897c0 3.027-1.998 6.789-4.332 8.287l-99.071 63.585c-1.729 1.111-3.045 0.64-3.154-1.915 1.057 0.526 2.468 0.363 3.854-0.525l96.595-61.998c2.838-1.821 5.086-6.122 5.086-9.663v-91.08c0-1.836-0.639-3.258-1.725-3.908C149.546 23.115 150.695 23.785 150.695 26.257zM44.137 96.047c0-3.027 1.999-6.789 4.333-8.287l98.296-63.088c1.049 0.158 1.817 1.162 1.817 3.173v91.08c0 3.199-2.08 7.14-4.584 8.746l-96.596 61.999c-1.433 0.92-2.598 0.826-3.267 0.076V96.047L44.137 96.047z" fill="#1f0f53" data-fill-palette-color="background"></path><path d="M259.21 196.714c-0.058-0.943-0.787-1.871-2.188-2.574l-101.926-51.153c-1.518-0.789-2.762-1.181-3.83-1.306l3.898-2.503c2.631-1.688 4.775-5.767 4.775-9.097V6.695c0-1.959-0.725-3.167-1.824-3.51-3.615-1.459-6.951-3.31-10.964-1.305l-1.899 1.071L33.366 74.688c-2.921 1.875-5.21 6.265-5.21 9.892v123.402c0.183 4.885 2.62 5.023 6.249 6.547l1.136 0.449c-0.086 0.438-0.18 0.941-0.275 1.495h-0.001c-0.198 1.149-0.402 2.498-0.544 3.882-0.226 2.188 1.297 3.982 1.084 6.205l-0.117 1.076c-0.077 0.963 0.144 1.812 1.066 2.257l101.939 51.136c3.064 1.538 7.706 1.4 10.508-0.361l49.495-31.151 57.479-36.177c1.797-1.131 1.963-5.547 2.137-7.42 0.514-0.532 0.451-1.614 0.451-1.614l0.421-7.106L259.21 196.714zM158.02 6.695v123.386c0 2.724-1.853 6.169-3.892 7.479L51.765 203.257l-13.276 8.521c-1.097 0.704-1.675 0.729-1.675-1.273v-7.246V87.12c0-2.724 1.852-6.169 3.891-7.478l115.64-74.221C157.441 4.718 158.02 4.694 158.02 6.695zM34.891 87.12v116.14 7.247c0 1.201 0.272 2.119 0.737 2.729l-1.419-0.542c-2.491-0.947-4.283-1.152-4.418-4.744v-4.69l0 0V84.58c0-3.112 2.04-6.964 4.458-8.516l113.94-73.132c2.03-1.166 4.645-0.27 7.116 0.872L39.666 78.024C37.036 79.711 34.891 83.79 34.891 87.12zM256.93 204.108l-0.104 1.085c-0.031 0.161-0.07 0.326-0.107 0.389-0.211 0.348-0.248 0.314-0.336 0.768-0.119 1.523-0.395 4.513-1.23 5.363l-60.066 37.804v0.001l-46.907 29.523c-2.194 1.381-6.117 1.527-8.621 0.271L37.608 228.205c-0.008-0.024-0.028-0.127-0.005-0.416l0.114-1.043c0.118-1.227-0.172-2.312-0.484-3.301l-0.114-0.354-0.376-1.279c-0.1-0.436-0.152-0.854-0.111-1.26 0.151-1.465 0.373-2.893 0.582-4.069l0 0c0.023-0.133 0.047-0.262 0.07-0.387 0.206 0.136 0.425 0.264 0.654 0.383h0.004c0.018 0.009 0.036 0.019 0.055 0.026l101.932 51.156c2.746 1.379 6.98 1.236 9.438-0.31l107.805-67.834L256.93 204.108zM256.507 197.664l-108.166 68.062c-1.848 1.163-5.363 1.314-7.548 0.217L38.86 214.789c-0.417-0.209-0.696-0.389-0.97-0.632l0.581-0.233 0.37-0.15c0.224-0.104 0.454-0.227 0.687-0.375l108.409-69.578c1.527-0.619 3.213-0.718 6.287 0.881l101.939 51.158C257.708 196.635 257.477 197.055 256.507 197.664z" fill="#1f0f53" data-fill-palette-color="background"></path><path d="M149.355 210.671c-0.134-0.166-0.287-0.324-0.463-0.477 2.752 2.162 8.359 3.059 12.113 0.694 4.293-2.699 2.988-5.654-0.197-7.294-0.096-0.119-0.203-0.235-0.319-0.346v-0.002c-0.046-0.045-0.094-0.088-0.143-0.131 0.054 0.043 0.11 0.086 0.167 0.133h0.008c2.809 2.065 8.262 2.877 11.939 0.562 0.297-0.186 0.566-0.375 0.812-0.562l0 0c3.288-2.539 1.953-5.205-1.013-6.729-0.133-0.166-0.286-0.326-0.461-0.478 2.75 2.162 8.357 3.058 12.113 0.693 4.291-2.699 2.986-5.654-0.199-7.294-0.133-0.166-0.287-0.326-0.461-0.478 2.75 2.162 8.357 3.059 12.113 0.695 4.29-2.701 2.988-5.654-0.197-7.295-0.135-0.166-0.289-0.326-0.463-0.477 2.75 2.16 8.357 3.057 12.113 0.693 4.291-2.699 2.988-5.654-0.197-7.295-0.349-0.432-0.836-0.82-1.453-1.13-2.248-1.13-5.647-1.03-7.711 0.267-0.201 0.127-0.383 0.262-0.547 0.399-0.385 0.167-0.759 0.362-1.115 0.587-3.539 2.229-3.271 4.629-1.28 6.321-0.236-0.183-0.502-0.349-0.8-0.498-2.25-1.129-5.647-1.03-7.711 0.269-0.2 0.125-0.383 0.26-0.547 0.398-0.385 0.167-0.758 0.362-1.115 0.586-3.541 2.229-3.271 4.629-1.28 6.321-0.235-0.183-0.502-0.349-0.799-0.497-2.249-1.129-5.648-1.031-7.712 0.268-0.2 0.125-0.383 0.26-0.547 0.398-0.385 0.167-0.76 0.361-1.114 0.587-3.541 2.228-3.272 4.628-1.281 6.319-0.235-0.18-0.502-0.348-0.799-0.496-2.25-1.129-5.647-1.031-7.711 0.267-0.202 0.127-0.384 0.261-0.548 0.4-0.385 0.167-0.76 0.36-1.114 0.586-3.54 2.228-3.272 4.628-1.281 6.319-0.235-0.182-0.502-0.348-0.799-0.496-2.25-1.129-5.647-1.031-7.711 0.268-0.202 0.126-0.384 0.26-0.547 0.398-0.082 0.035-0.161 0.072-0.24 0.115h-0.012c-0.298 0.139-0.586 0.297-0.863 0.473-3.54 2.227-3.272 4.628-1.28 6.32-0.236-0.183-0.502-0.35-0.8-0.498-2.25-1.129-5.649-1.031-7.711 0.268-0.202 0.127-0.385 0.261-0.547 0.398-0.387 0.168-0.759 0.362-1.116 0.588-3.111 1.957-3.282 4.049-1.925 5.677l0 0c0.187 0.225 0.402 0.438 0.643 0.645-0.235-0.182-0.502-0.349-0.799-0.497-0.105-0.054-0.213-0.104-0.323-0.146v-0.004c-1.952-0.842-4.613-0.84-6.567-0.002h-0.017c-0.284 0.121-0.553 0.262-0.803 0.418-0.202 0.128-0.384 0.262-0.547 0.4-0.386 0.168-0.76 0.361-1.116 0.586-3.54 2.228-3.273 4.629-1.282 6.321-0.235-0.183-0.502-0.349-0.799-0.497-2.25-1.13-5.648-1.031-7.71 0.268-0.202 0.125-0.385 0.261-0.547 0.398-0.386 0.167-0.759 0.362-1.115 0.586-3.541 2.229-3.272 4.629-1.281 6.322-0.236-0.182-0.503-0.35-0.799-0.498-2.25-1.129-5.648-1.03-7.71 0.268-0.202 0.127-0.384 0.26-0.547 0.399-0.386 0.166-0.759 0.36-1.115 0.585-8.296 5.221 4.316 11.393 11.023 7.173 4.291-2.7 2.988-5.655-0.198-7.294-0.134-0.166-0.288-0.326-0.462-0.479 2.751 2.162 8.358 3.059 12.113 0.695 4.292-2.699 2.989-5.654-0.198-7.295-0.134-0.166-0.288-0.326-0.462-0.477 2.751 2.162 8.358 3.058 12.114 0.693 4.291-2.699 2.988-5.653-0.198-7.295-0.134-0.166-0.288-0.326-0.462-0.477 2.751 2.162 8.358 3.059 12.112 0.695 0.779-0.49 1.375-0.989 1.807-1.491h0.004C153.309 214.233 151.96 212.013 149.355 210.671zM198.33 175.81c3.254-2.048 9.604 0.266 6.414 2.271C201.489 180.128 195.141 177.816 198.33 175.81zM195.854 177.308c0.149 0.936 0.858 1.826 2.05 2.424 2.249 1.129 5.648 1.031 7.711-0.268 0.846-0.529 1.348-1.183 1.543-1.856 1.243 1.082 1.014 2.195-1.207 3.593-2.777 1.747-6.687 1.317-9.443-0.065C194.125 179.939 194.367 178.437 195.854 177.308zM186.876 182.886c3.254-2.049 9.604 0.265 6.414 2.271C190.037 187.207 183.687 184.893 186.876 182.886zM184.4 184.385c0.15 0.935 0.859 1.825 2.049 2.423 2.25 1.129 5.649 1.031 7.713-0.266 0.844-0.531 1.348-1.185 1.541-1.859 1.244 1.083 1.014 2.195-1.207 3.595-2.776 1.747-6.686 1.318-9.442-0.065C182.671 187.016 182.914 185.513 184.4 184.385zM175.423 189.962c3.255-2.047 9.604 0.266 6.414 2.271C178.582 194.282 172.233 191.97 175.423 189.962zM172.947 191.46c0.149 0.937 0.859 1.826 2.049 2.425 2.25 1.129 5.648 1.03 7.711-0.269 0.844-0.529 1.35-1.182 1.543-1.856 1.244 1.083 1.016 2.196-1.207 3.593-2.776 1.748-6.686 1.318-9.442-0.064C171.219 194.093 171.458 192.589 172.947 191.46zM163.971 197.039c3.254-2.047 9.603 0.266 6.413 2.271C167.128 201.358 160.78 199.046 163.971 197.039zM161.494 198.539c0.149 0.935 0.859 1.825 2.049 2.422 2.25 1.129 5.648 1.031 7.711-0.267 0.846-0.53 1.349-1.182 1.543-1.856 1.244 1.082 1.015 2.193-1.207 3.593-0.58 0.364-1.211 0.636-1.868 0.819v0.002c-1.644 0.465-3.462 0.406-5.138 0l0 0c-0.867-0.211-1.693-0.516-2.438-0.889C159.766 201.167 160.005 199.666 161.494 198.539zM152.518 204.117c3.254-2.05 9.603 0.264 6.413 2.271C155.675 208.436 149.328 206.123 152.518 204.117zM150.041 205.614c0.148 0.935 0.859 1.826 2.049 2.423 2.25 1.131 5.648 1.032 7.711-0.267 0.845-0.53 1.349-1.183 1.544-1.856 1.243 1.082 1.015 2.194-1.207 3.592-2.777 1.748-6.687 1.318-9.443-0.065C148.312 208.246 148.553 206.744 150.041 205.614zM106.704 232.421c3.254-2.047 9.603 0.266 6.413 2.272C109.864 236.742 103.515 234.429 106.704 232.421zM115.53 234.219c1.245 1.083 1.015 2.196-1.207 3.594-2.778 1.748-6.687 1.317-9.444-0.065-2.381-1.195-2.14-2.697-0.652-3.826 0.149 0.936 0.859 1.826 2.049 2.424 2.25 1.129 5.648 1.031 7.71-0.266C114.832 235.546 115.335 234.896 115.53 234.219zM118.157 225.346c3.254-2.048 9.603 0.265 6.414 2.271C121.317 229.666 114.968 227.353 118.157 225.346zM126.983 227.143c1.245 1.083 1.015 2.194-1.206 3.593-2.778 1.748-6.686 1.318-9.444-0.066-2.38-1.192-2.139-2.695-0.651-3.824 0.149 0.935 0.859 1.826 2.049 2.424 2.25 1.129 5.648 1.031 7.71-0.268C126.285 228.47 126.789 227.818 126.983 227.143zM129.61 218.27c3.254-2.049 9.603 0.265 6.414 2.271C132.77 222.587 126.421 220.275 129.61 218.27zM138.437 220.065c1.245 1.084 1.015 2.196-1.207 3.595-2.778 1.747-6.686 1.317-9.444-0.065-2.381-1.195-2.14-2.698-0.651-3.827 0.149 0.938 0.859 1.827 2.049 2.425 2.25 1.129 5.648 1.03 7.71-0.267C137.738 221.393 138.242 220.742 138.437 220.065zM141.064 211.192c3.253-2.048 9.602 0.265 6.412 2.271C144.223 215.512 137.874 213.198 141.064 211.192zM148.854 216.471v0.002c-0.056 0.037-0.112 0.073-0.171 0.108-2.777 1.748-6.686 1.318-9.444-0.064-0.026-0.014-0.052-0.026-0.078-0.045h-0.009c-2.287-1.188-2.034-2.666-0.564-3.781 0.149 0.936 0.859 1.826 2.049 2.424 2.25 1.131 5.647 1.031 7.711-0.267 0.844-0.531 1.348-1.183 1.543-1.857C151.102 214.044 150.916 215.126 148.854 216.471z" fill="#1f0f53" data-fill-palette-color="background"></path><path d="M86.936 219.14c-0.133-0.166-0.288-0.325-0.462-0.477 2.751 2.162 8.358 3.059 12.114 0.693 1.515-0.952 2.333-1.938 2.616-2.884v-0.003c0.52-1.736-0.754-3.348-2.815-4.407-0.134-0.166-0.288-0.326-0.462-0.478 2.751 2.162 8.358 3.059 12.114 0.694 4.291-2.7 2.988-5.653-0.198-7.294-0.134-0.166-0.289-0.326-0.462-0.479 2.751 2.162 8.358 3.059 12.114 0.695 0.643-0.404 1.147-0.813 1.551-1.225h0.013v-0.014c0.235-0.238 0.444-0.478 0.604-0.715v-0.006c1.393-2.078 0.058-4.089-2.366-5.337-0.134-0.165-0.288-0.325-0.462-0.477 2.751 2.161 8.358 3.058 12.114 0.694 4.291-2.701 2.988-5.654-0.198-7.295-0.134-0.166-0.288-0.326-0.462-0.478 2.751 2.163 8.358 3.058 12.114 0.694 4.291-2.699 2.986-5.653-0.198-7.293-0.134-0.166-0.287-0.326-0.463-0.479 2.752 2.162 8.358 3.059 12.114 0.694 4.291-2.699 2.987-5.653-0.196-7.294-0.136-0.166-0.289-0.325-0.465-0.478 2.751 2.162 8.358 3.058 12.114 0.694 4.291-2.7 2.987-5.653-0.198-7.294-0.134-0.167-0.288-0.326-0.462-0.478 2.75 2.161 8.356 3.058 12.113 0.694 4.291-2.7 2.987-5.655-0.198-7.294-0.348-0.434-0.835-0.821-1.452-1.131-2.25-1.129-5.647-1.03-7.711 0.267-0.2 0.128-0.383 0.261-0.547 0.399-0.385 0.168-0.758 0.361-1.115 0.586-3.54 2.229-3.272 4.629-1.28 6.32-0.235-0.181-0.502-0.348-0.799-0.496-2.25-1.129-5.648-1.031-7.712 0.267-0.2 0.127-0.383 0.261-0.547 0.399-0.386 0.168-0.759 0.363-1.114 0.588-3.539 2.227-3.272 4.628-1.281 6.32-0.235-0.183-0.502-0.35-0.799-0.498-2.25-1.129-5.648-1.03-7.711 0.267-0.201 0.127-0.385 0.262-0.548 0.399-0.386 0.168-0.759 0.362-1.114 0.588-3.54 2.227-3.273 4.627-1.281 6.32-0.236-0.183-0.502-0.349-0.799-0.496-2.25-1.131-5.649-1.033-7.711 0.266-0.202 0.127-0.384 0.261-0.547 0.398-0.386 0.168-0.759 0.362-1.115 0.588-3.54 2.228-3.273 4.629-1.282 6.32-0.235-0.182-0.502-0.349-0.799-0.498-2.25-1.129-5.648-1.031-7.711 0.268-0.201 0.127-0.384 0.261-0.546 0.399-0.386 0.167-0.759 0.362-1.116 0.587-3.54 2.229-3.272 4.629-1.281 6.321-0.235-0.183-0.502-0.349-0.799-0.498-2.25-1.129-5.648-1.03-7.71 0.267-0.202 0.127-0.385 0.262-0.547 0.399-0.386 0.168-0.759 0.362-1.116 0.586-2.83 1.782-3.227 3.674-2.255 5.222v0.004c0.244 0.39 0.575 0.758 0.974 1.097-0.236-0.181-0.503-0.349-0.799-0.497-0.538-0.27-1.14-0.469-1.775-0.602H106.6c-1.188-0.242-2.483-0.24-3.668 0v0.004c-0.83 0.17-1.604 0.459-2.25 0.865-0.201 0.125-0.384 0.26-0.547 0.398-0.386 0.167-0.759 0.361-1.115 0.587-3.54 2.228-3.272 4.627-1.282 6.319-0.236-0.182-0.502-0.348-0.798-0.496-2.25-1.131-5.649-1.031-7.711 0.267-0.202 0.126-0.384 0.261-0.547 0.399-0.386 0.167-0.759 0.361-1.116 0.586-2.283 1.438-2.982 2.945-2.657 4.29 0.18 0.739 0.668 1.431 1.376 2.032-0.236-0.183-0.502-0.35-0.799-0.498-2.25-1.129-5.649-1.031-7.711 0.267-0.201 0.127-0.383 0.261-0.547 0.399-0.385 0.168-0.759 0.362-1.115 0.586-8.295 5.221 4.317 11.393 11.023 7.173C91.424 223.734 90.122 220.78 86.936 219.14zM170.27 163.046c3.254-2.047 9.604 0.267 6.413 2.272C173.429 167.369 167.08 165.055 170.27 163.046zM167.794 164.546c0.148 0.936 0.857 1.826 2.049 2.424 2.248 1.129 5.648 1.029 7.711-0.268 0.844-0.529 1.348-1.182 1.542-1.856 1.245 1.082 1.016 2.194-1.207 3.593-2.777 1.748-6.687 1.316-9.443-0.066C166.064 167.178 166.307 165.673 167.794 164.546zM158.816 170.125c3.254-2.049 9.604 0.266 6.413 2.271C161.976 174.444 155.626 172.13 158.816 170.125zM156.339 171.623c0.15 0.936 0.859 1.826 2.05 2.424 2.25 1.129 5.649 1.031 7.712-0.268 0.843-0.529 1.348-1.182 1.542-1.857 1.244 1.082 1.015 2.195-1.207 3.594-2.776 1.748-6.687 1.316-9.442-0.066C154.611 174.253 154.853 172.751 156.339 171.623zM147.363 177.201c3.254-2.048 9.604 0.266 6.413 2.271C150.521 181.521 144.173 179.208 147.363 177.201zM144.887 178.699c0.149 0.937 0.858 1.826 2.049 2.424 2.25 1.129 5.647 1.031 7.712-0.267 0.844-0.53 1.348-1.183 1.542-1.858 1.244 1.084 1.015 2.195-1.207 3.594-2.776 1.748-6.687 1.318-9.442-0.065C143.158 181.332 143.398 179.828 144.887 178.699zM135.91 184.277c3.254-2.048 9.604 0.266 6.414 2.271C139.068 188.597 132.721 186.285 135.91 184.277zM133.434 185.775c0.149 0.936 0.859 1.827 2.049 2.424 2.25 1.129 5.648 1.032 7.711-0.267 0.845-0.53 1.349-1.183 1.543-1.856 1.244 1.081 1.015 2.194-1.207 3.592-2.777 1.748-6.686 1.318-9.444-0.065C131.705 188.407 131.946 186.904 133.434 185.775zM124.456 191.354c3.254-2.047 9.604 0.267 6.414 2.272C127.616 195.673 121.267 193.361 124.456 191.354zM121.98 192.853c0.149 0.936 0.859 1.826 2.048 2.424 2.25 1.129 5.649 1.031 7.711-0.267 0.844-0.531 1.348-1.183 1.542-1.859 1.244 1.084 1.015 2.196-1.207 3.595-2.778 1.748-6.686 1.317-9.444-0.065C120.251 195.483 120.492 193.981 121.98 192.853zM113.003 198.431c3.254-2.049 9.603 0.265 6.414 2.271C116.163 202.75 109.814 200.438 113.003 198.431zM110.527 199.929c0.149 0.936 0.859 1.826 2.05 2.424 2.25 1.129 5.648 1.031 7.71-0.268 0.844-0.53 1.348-1.182 1.542-1.857 1.072 0.934 1.05 1.887-0.396 3.025v0.002c-0.233 0.184-0.503 0.371-0.811 0.565-2.778 1.747-6.686 1.318-9.444-0.065-0.323-0.162-0.598-0.33-0.828-0.502l0 0C108.887 202.16 109.242 200.904 110.527 199.929zM101.55 205.507c3.254-2.049 9.603 0.265 6.414 2.271C104.709 209.828 98.36 207.514 101.55 205.507zM99.074 207.005c0.149 0.936 0.859 1.826 2.049 2.424 2.25 1.129 5.648 1.031 7.71-0.268 0.845-0.529 1.348-1.182 1.542-1.856 1.245 1.082 1.015 2.194-1.206 3.593-2.779 1.748-6.686 1.318-9.444-0.066C97.345 209.637 97.586 208.134 99.074 207.005zM90.097 212.583c3.254-2.047 9.602 0.266 6.413 2.271C93.256 216.903 86.907 214.591 90.097 212.583zM87.62 214.082c0.147 0.92 0.836 1.797 1.99 2.394v0.001c0.02 0.01 0.039 0.021 0.06 0.029 2.097 1.054 5.192 1.039 7.273-0.024h0.013c0.147-0.076 0.29-0.155 0.425-0.241 0.844-0.531 1.348-1.183 1.542-1.857 0.768 0.668 0.974 1.349 0.498 2.094v0.006c-0.295 0.465-0.854 0.959-1.704 1.493-2.778 1.748-6.686 1.317-9.443-0.065-0.893-0.447-1.417-0.938-1.645-1.434v-0.005C86.248 215.639 86.69 214.787 87.62 214.082zM78.644 219.66c3.254-2.047 9.603 0.266 6.413 2.271C81.803 223.979 75.454 221.667 78.644 219.66zM86.263 225.05c-2.778 1.748-6.686 1.318-9.444-0.065-2.381-1.194-2.14-2.696-0.652-3.825 0.149 0.936 0.859 1.826 2.049 2.424 2.25 1.129 5.649 1.031 7.711-0.268 0.844-0.531 1.348-1.182 1.542-1.857C88.714 222.541 88.484 223.653 86.263 225.05z" fill="#1f0f53" data-fill-palette-color="background"></path></g></svg></g></svg></g></svg></g></svg></g><g></g></svg></g></svg></g><path d="M0 41.215L0 1 183.678 1 183.678 41.215 180.894 41.215 180.894 3.784 2.784 3.784 2.784 41.215 0 41.215M0 205.985L0 246.2 183.678 246.2 183.678 205.985 180.894 205.985 180.894 243.416 2.784 243.416 2.784 205.985 0 205.985" fill="#ffdb99" stroke="transparent" data-fill-palette-color="primary"></path></svg></g><defs></defs></svg><rect width="183.67807066966975" height="247.2" fill="none" stroke="none" visibility="hidden"></rect></g></svg></g></svg>